# Blender v2.78 (sub 0) OBJ File: ''
# www.blender.org
o mmGroup0
v -0.185416 0.437900 -0.451533
v -0.183491 0.366226 -0.083361
v -0.218008 0.280644 -0.133458
v -0.237791 0.331196 -0.383733
v -0.241544 0.382833 -0.082577
v -0.172429 0.376639 0.102263
v -0.233428 0.182644 0.253086
v -0.102895 0.168897 0.115432
v -0.271050 0.098389 0.165031
v -0.366767 0.148827 0.196043
v 0.225285 0.215616 -0.114811
v 0.065126 0.055527 -0.199621
v 0.023181 0.199955 -0.045173
v 0.346363 -0.006639 0.238839
v 0.349052 0.190239 0.098491
v 0.256387 0.089646 0.202360
v -0.216734 -0.066659 -0.176837
v -0.035998 -0.060310 -0.189784
v -0.123486 -0.178864 -0.114510
v 0.039979 -0.076475 -0.296458
v 0.549287 -0.219943 0.090231
v 0.538101 -0.144649 -0.013090
v 0.463368 -0.120277 0.111074
v -0.161063 -0.235044 -0.009842
v -0.121196 -0.233417 0.061831
v -0.243710 -0.190537 0.025655
v 0.290477 -0.023502 -0.218183
v 0.308814 -0.275927 -0.183643
v 0.390440 -0.264133 0.161281
v 0.338526 -0.325092 0.132325
v 0.398029 -0.321332 0.059050
v -0.187863 -0.324179 0.097767
v -0.234004 -0.315412 0.173373
v -0.127839 -0.226684 0.165858
v -0.118235 -0.340156 -0.098340
v -0.228411 -0.337208 -0.065986
v 0.273243 -0.345889 -0.145083
v 0.027541 -0.280766 -0.198092
v 0.468936 -0.252019 -0.066696
v 0.397622 -0.337353 0.015620
v 0.332184 -0.344295 -0.041156
v 0.296750 -0.315744 0.214962
v 0.265878 -0.221747 0.262078
v 0.092737 -0.237377 0.267904
v -0.170149 -0.312021 0.258023
v -0.260478 -0.331110 0.006620
v -0.013501 -0.244156 -0.098190
v 0.008420 -0.306341 0.309321
v 0.019993 -0.203839 0.188560
v 0.461732 -0.141377 -0.043093
v -0.068508 -0.314369 0.221356
v -0.073135 -0.348323 -0.193602
v 0.445224 -0.025823 -0.103080
v -0.145992 -0.144675 0.189882
v 0.091887 0.010493 0.303439
v -0.009378 0.036946 0.209996
v -0.176980 0.008125 0.221877
v -0.347153 -0.057623 -0.047796
v -0.332262 -0.002356 0.139452
v 0.378870 0.127808 -0.094582
v -0.339486 0.101055 -0.051220
v -0.084141 0.229024 0.039371
v -0.136681 0.202152 -0.117795
v 0.170348 0.216361 0.140542
v -0.118078 0.301209 -0.072604
v -0.386647 0.164262 -0.032431
v -0.285294 0.335080 -0.107270
v -0.279376 0.488987 -0.401876
v -0.361489 0.347289 0.008267
v -0.329189 0.273204 0.226360
v 0.113590 0.501781 -0.264884
v 0.058289 0.548320 -0.198216
v -0.230111 0.469270 -0.457099
v -0.137156 0.377340 -0.009359
v 0.103278 0.406432 -0.166637
v -0.292388 0.383409 0.098082
vt 0.3099 0.4340
vt 0.3229 0.4319
vt 0.3182 0.4390
vt 0.3106 0.4355
vt 0.3102 0.4378
vt 0.3252 0.4180
vt 0.3119 0.4010
vt 0.3659 0.3840
vt 0.2981 0.3952
vt 0.2861 0.4097
vt 0.5284 0.4333
vt 0.4582 0.5076
vt 0.4325 0.4274
vt 0.6497 0.2934
vt 0.5781 0.3670
vt 0.5606 0.3153
vt 0.3143 0.5080
vt 0.3956 0.5487
vt 0.2982 0.5597
vt 0.4620 0.5744
vt 0.9799 0.3418
vt 0.8712 0.4063
vt 0.8104 0.3302
vt 0.1864 0.5069
vt 0.1733 0.4087
vt 0.2298 0.4490
vt 0.6057 0.5181
vt 0.7236 0.6445
vt 0.8765 0.2206
vt 0.9529 0.1435
vt 0.9999 0.2986
vt 0.0345 0.3827
vt 0.0001 0.2601
vt 0.1898 0.2878
vt 0.2154 0.6985
vt 0.0637 0.6420
vt 0.7589 0.7238
vt 0.4494 0.7128
vt 0.8976 0.4568
vt 0.9928 0.4600
vt 0.9144 0.6080
vt 0.7968 0.0580
vt 0.6776 0.1408
vt 0.4824 0.0935
vt 0.0854 0.1341
vt 0.0001 0.5457
vt 0.3518 0.6540
vt 0.3532 0.0001
vt 0.3830 0.1654
vt 0.8101 0.4373
vt 0.2428 0.1258
vt 0.3289 0.7984
vt 0.7099 0.4490
vt 0.2513 0.3214
vt 0.4827 0.2616
vt 0.4033 0.3094
vt 0.3141 0.3592
vt 0.2706 0.4531
vt 0.2859 0.4084
vt 0.6103 0.4270
vt 0.2577 0.4483
vt 0.3701 0.4056
vt 0.3531 0.4446
vt 0.5041 0.3613
vt 0.3366 0.4284
vt 0.1840 0.4492
vt 0.3000 0.4417
vt 0.3098 0.4349
vt 0.2724 0.4326
vt 0.2986 0.4096
vt 0.3324 0.4299
vt 0.3314 0.4300
vt 0.3104 0.4337
vt 0.3295 0.4272
vt 0.3329 0.4296
vt 0.2989 0.4207
vn 0.7100 0.1474 -0.6887
vn 0.2917 0.8107 -0.5076
vn 0.1238 -0.4151 -0.9013
vn -0.2226 -0.8204 -0.5266
vn -0.1985 0.9801 -0.0010
vn 0.4686 0.7660 0.4400
vn 0.2789 -0.1861 0.9421
vn 0.3698 0.5233 0.7677
vn -0.4295 -0.3463 0.8340
vn -0.7706 -0.4185 0.4807
vn 0.1327 0.8432 -0.5209
vn -0.0965 0.5144 -0.8521
vn 0.0165 0.9612 -0.2753
vn 0.5501 0.2289 0.8031
vn 0.5894 0.7443 0.3141
vn 0.1664 0.5665 0.8071
vn -0.4249 -0.2467 -0.8710
vn -0.4393 -0.1034 -0.8924
vn -0.3661 -0.4835 -0.7951
vn -0.3224 0.1047 -0.9408
vn 0.8855 -0.2190 0.4097
vn 0.7752 0.4942 -0.3936
vn 0.7866 0.3132 0.5321
vn -0.9542 -0.1370 -0.2659
vn -0.9355 -0.0808 0.3439
vn -0.6379 -0.7686 0.0487
vn 0.3850 0.1933 -0.9024
vn 0.5003 -0.4173 -0.7586
vn 0.5902 -0.4025 0.6998
vn 0.5973 -0.6874 0.4132
vn 0.4926 -0.7829 0.3800
vn -0.7013 0.7123 0.0275
vn -0.6328 0.7738 -0.0285
vn -0.9455 0.1948 0.2609
vn -0.4955 0.4276 -0.7561
vn -0.4750 0.6514 -0.5917
vn 0.4037 -0.5738 -0.7126
vn -0.3564 -0.1566 -0.9211
vn 0.3880 -0.3212 -0.8639
vn 0.5517 -0.8166 -0.1695
vn 0.6099 -0.5797 -0.5404
vn 0.4811 -0.3627 0.7981
vn 0.3109 -0.2081 0.9274
vn -0.1270 0.1567 0.9794
vn -0.2079 0.7726 0.5998
vn -0.6868 0.7264 0.0251
vn -0.5862 0.0277 -0.8097
vn -0.3002 0.6288 0.7173
vn -0.2899 0.1712 0.9416
vn 0.7457 0.2171 -0.6299
vn -0.2126 0.4786 0.8519
vn -0.4695 0.6658 -0.5799
vn 0.8771 0.1721 -0.4483
vn -0.4937 -0.3088 0.8130
vn -0.2506 0.3731 0.8933
vn -0.2112 0.3460 0.9142
vn -0.1732 0.0812 0.9815
vn -0.8950 -0.3322 -0.2977
vn -0.8406 -0.0916 0.5338
vn 0.7020 0.5656 -0.4327
vn -0.8519 -0.0966 -0.5148
vn 0.7883 0.5522 0.2715
vn 0.1732 0.3621 -0.9159
vn 0.0090 0.8502 0.5264
vn 0.8364 -0.1256 -0.5336
vn -0.9093 -0.2282 -0.3480
vn -0.8752 0.2028 -0.4392
vn -0.6121 0.6660 -0.4263
vn -0.8207 0.5589 -0.1187
vn -0.4858 0.4294 0.7613
vn 0.6526 0.3253 -0.6843
vn 0.2708 0.9619 0.0386
vn -0.2309 0.6451 -0.7284
vn 0.4877 0.8034 0.3415
vn 0.9369 -0.3314 0.1116
vn -0.3047 0.8985 0.3159
s 1
f 1/1/1 2/2/2 3/3/3
f 3/3/3 4/4/4 1/1/1
f 2/2/2 1/1/1 5/5/5
f 6/6/6 7/7/7 8/8/8
f 9/9/9 7/7/7 10/10/10
f 11/11/11 12/12/12 13/13/13
f 14/14/14 15/15/15 16/16/16
f 17/17/17 18/18/18 19/19/19
f 12/12/12 20/20/20 18/18/18
f 21/21/21 22/22/22 23/23/23
f 24/24/24 25/25/25 26/26/26
f 20/20/20 27/27/27 28/28/28
f 19/19/19 24/24/24 26/26/26
f 29/29/29 30/30/30 31/31/31
f 32/32/32 33/33/33 34/34/34
f 24/24/24 35/35/35 36/36/36
f 37/37/37 38/38/38 28/28/28
f 39/39/39 40/40/40 41/41/41
f 21/21/21 29/29/29 31/31/31
f 42/42/42 29/29/29 43/43/43
f 42/42/42 30/30/30 29/29/29
f 42/42/42 43/43/43 44/44/44
f 34/34/34 33/33/33 45/45/45
f 24/24/24 36/36/36 46/46/46
f 17/17/17 19/19/19 26/26/26
f 19/19/19 35/35/35 24/24/24
f 32/32/32 25/25/25 24/24/24
f 38/38/38 35/35/35 47/47/47
f 34/34/34 25/25/25 32/32/32
f 48/48/48 44/44/44 49/49/49
f 41/41/41 50/50/50 39/39/39
f 29/29/29 23/23/23 43/43/43
f 49/49/49 51/51/51 48/48/48
f 52/52/52 35/35/35 38/38/38
f 28/28/28 50/50/50 41/41/41
f 40/40/40 39/39/39 21/21/21
f 24/24/24 46/46/46 32/32/32
f 28/28/28 53/53/53 50/50/50
f 23/23/23 14/14/14 43/43/43
f 47/47/47 35/35/35 19/19/19
f 47/47/47 18/18/18 38/38/38
f 21/21/21 39/39/39 22/22/22
f 50/50/50 23/23/23 22/22/22
f 54/54/54 25/25/25 34/34/34
f 54/54/54 34/34/34 51/51/51
f 47/47/47 19/19/19 18/18/18
f 28/28/28 38/38/38 20/20/20
f 39/39/39 50/50/50 22/22/22
f 55/55/55 43/43/43 14/14/14
f 56/56/56 51/51/51 49/49/49
f 53/53/53 28/28/28 27/27/27
f 50/50/50 53/53/53 23/23/23
f 55/55/55 44/44/44 43/43/43
f 56/56/56 49/49/49 44/44/44
f 51/51/51 56/56/56 54/54/54
f 26/26/26 25/25/25 54/54/54
f 38/38/38 18/18/18 20/20/20
f 44/44/44 55/55/55 56/56/56
f 56/56/56 57/57/57 54/54/54
f 26/26/26 58/58/58 17/17/17
f 54/54/54 57/57/57 59/59/59
f 18/18/18 17/17/17 12/12/12
f 53/53/53 27/27/27 60/60/60
f 15/15/15 53/53/53 60/60/60
f 15/15/15 23/23/23 53/53/53
f 55/55/55 14/14/14 16/16/16
f 59/59/59 26/26/26 54/54/54
f 17/17/17 58/58/58 61/61/61
f 20/20/20 12/12/12 27/27/27
f 55/55/55 16/16/16 56/56/56
f 57/57/57 9/9/9 59/59/59
f 26/26/26 59/59/59 58/58/58
f 8/8/8 13/13/13 62/62/62
f 3/3/3 63/63/63 61/61/61
f 11/11/11 60/60/60 27/27/27
f 64/64/64 56/56/56 16/16/16
f 8/8/8 64/64/64 13/13/13
f 56/56/56 9/9/9 57/57/57
f 9/9/9 61/61/61 59/59/59
f 12/12/12 11/11/11 27/27/27
f 11/11/11 15/15/15 60/60/60
f 58/58/58 59/59/59 61/61/61
f 17/17/17 61/61/61 63/63/63
f 63/63/63 12/12/12 17/17/17
f 11/11/11 64/64/64 15/15/15
f 16/16/16 15/15/15 64/64/64
f 63/63/63 3/3/3 65/65/65
f 61/61/61 9/9/9 66/66/66
f 67/67/67 3/3/3 66/66/66
f 66/66/66 3/3/3 61/61/61
f 56/56/56 8/8/8 9/9/9
f 6/6/6 8/8/8 62/62/62
f 8/8/8 7/7/7 9/9/9
f 63/63/63 65/65/65 62/62/62
f 2/2/2 65/65/65 3/3/3
f 13/13/13 12/12/12 63/63/63
f 63/63/63 62/62/62 13/13/13
f 67/67/67 5/5/5 68/68/68
f 66/66/66 9/9/9 10/10/10
f 67/67/67 66/66/66 69/69/69
f 7/7/7 70/70/70 10/10/10
f 3/3/3 67/67/67 4/4/4
f 6/6/6 70/70/70 7/7/7
f 2/2/2 71/71/71 65/65/65
f 66/66/66 10/10/10 70/70/70
f 71/71/71 2/2/2 72/72/72
f 5/5/5 67/67/67 69/69/69
f 1/1/1 4/4/4 73/73/73
f 74/74/74 65/65/65 75/75/75
f 74/74/74 76/76/76 6/6/6
f 4/4/4 67/67/67 73/73/73
f 1/1/1 73/73/73 68/68/68
f 76/76/76 5/5/5 69/69/69
f 75/75/75 71/71/71 74/74/74
f 6/6/6 62/62/62 74/74/74
f 76/76/76 70/70/70 6/6/6
f 75/75/75 65/65/65 71/71/71
f 76/76/76 69/69/69 70/70/70
f 73/73/73 67/67/67 68/68/68
f 5/5/5 74/74/74 2/2/2
f 37/37/37 28/28/28 41/41/41
f 23/23/23 29/29/29 21/21/21
f 14/14/14 23/23/23 15/15/15
f 8/8/8 56/56/56 64/64/64
f 64/64/64 11/11/11 13/13/13
f 66/66/66 70/70/70 69/69/69
f 74/74/74 62/62/62 65/65/65
f 76/76/76 74/74/74 5/5/5
f 68/68/68 5/5/5 1/1/1
f 74/74/74 72/72/72 2/2/2
f 74/74/74 71/71/71 72/72/72
f 51/51/51 34/34/34 45/45/45
f 38/38/38 37/37/37 52/52/52
f 40/40/40 21/21/21 31/31/31
f 48/48/48 42/42/42 44/44/44
